<?xml version="1.0"?>
<svg xmlns="http://www.w3.org/2000/svg" xmlns:xlink="http://www.w3.org/1999/xlink" x="0px" y="0px" viewBox="0 0 240 160" fill="#FFF">
	<path
		d="M 218.55849,160 H 21.43538 C 9.6136169,160 0,150.76307 0,139.41041 V 20.589586 C 0,9.2320159 9.6136169,0 21.43538,0 H 218.56461 C 230.38536,0 240,9.2369271 240,20.589586 V 139.41041 C 239.99387,150.76897 230.38025,160 218.55849,160 Z M 22.035465,138.82304 H 217.9584 V 21.176962 H 22.035465 Z"
		style="stroke-width:1.00206" />
	<path
		d="m 145.34104,70.936928 -32.1776,-22.518693 c -3.24168,-2.265031 -7.52815,-2.591133 -11.10412,-0.843739 -3.569839,1.747394 -5.821944,5.26772 -5.821944,9.119059 v 45.036405 c 0,3.85232 2.252105,7.37265 5.821944,9.12004 1.52321,0.74748 3.18034,1.11091 4.83236,1.11091 2.21326,0 4.40915,-0.66203 6.27176,-1.96054 l 32.1776,-22.518695 c 2.75201,-1.934018 4.38153,-5.005463 4.38153,-8.27532 0,-3.269856 -1.62952,-6.335408 -4.38153,-8.269427 z"
		style="stroke-width:1.00206" />
</svg>